name rise37.2698peak67.6939fall79.5734.mot
datacolumns 19
datarows 33
range 11.81162500000000 11.86496100000000
endheader
time	ground_force1_vx	ground_force1_vy	ground_force1_vz	ground_force1_px	ground_force1_py	ground_force1_pz	ground_force2_vx	ground_force2_vy	ground_force2_vz	ground_force2_px	ground_force2_py	ground_force2_pz	ground_torque1_x	ground_torque1_y	ground_torque1_z	ground_torque2_x	ground_torque2_y	ground_torque2_z	
11.81162500000000	56.52679400000000	769.42995599999995	44.25635200000000	0.31395700000000	0.00000000000000	0.06792000000000	0.00000000000000	0.00000000000000	0.00000000000000	0.00000000000000	0.00000000000000	0.00000000000000	0.00000000000000	19.87643200000000	0.00000000000000	0.00000000000000	0.00000000000000	0.00000000000000	
11.81328900000000	55.86446000000000	772.45504200000005	44.42009600000000	0.31318100000000	0.00000000000000	0.06796900000000	0.00000000000000	0.00000000000000	0.00000000000000	0.00000000000000	0.00000000000000	0.00000000000000	0.00000000000000	19.92931800000000	0.00000000000000	0.00000000000000	0.00000000000000	0.00000000000000	
11.81497400000000	55.20061300000000	775.32631900000001	44.58568700000000	0.31241100000000	0.00000000000000	0.06802000000000	0.00000000000000	0.00000000000000	0.00000000000000	0.00000000000000	0.00000000000000	0.00000000000000	0.00000000000000	19.98381000000000	0.00000000000000	0.00000000000000	0.00000000000000	0.00000000000000	
11.81662400000000	54.53593500000000	778.04290100000003	44.75299900000000	0.31164600000000	0.00000000000000	0.06807300000000	0.00000000000000	0.00000000000000	0.00000000000000	0.00000000000000	0.00000000000000	0.00000000000000	0.00000000000000	20.03978500000000	0.00000000000000	0.00000000000000	0.00000000000000	0.00000000000000	
11.81829000000000	53.87106300000000	780.60411099999999	44.92184200000000	0.31088600000000	0.00000000000000	0.06812900000000	0.00000000000000	0.00000000000000	0.00000000000000	0.00000000000000	0.00000000000000	0.00000000000000	0.00000000000000	20.09708400000000	0.00000000000000	0.00000000000000	0.00000000000000	0.00000000000000	
11.81996100000000	53.20659100000000	783.00948800000003	45.09196900000000	0.31012700000000	0.00000000000000	0.06818700000000	0.00000000000000	0.00000000000000	0.00000000000000	0.00000000000000	0.00000000000000	0.00000000000000	0.00000000000000	20.15551500000000	0.00000000000000	0.00000000000000	0.00000000000000	0.00000000000000	
11.82162600000000	52.54307000000000	785.25878899999998	45.26307800000000	0.30936900000000	0.00000000000000	0.06824800000000	0.00000000000000	0.00000000000000	0.00000000000000	0.00000000000000	0.00000000000000	0.00000000000000	0.00000000000000	20.21485300000000	0.00000000000000	0.00000000000000	0.00000000000000	0.00000000000000	
11.82329100000000	51.88101000000000	787.35199599999999	45.43481500000000	0.30861000000000	0.00000000000000	0.06831100000000	0.00000000000000	0.00000000000000	0.00000000000000	0.00000000000000	0.00000000000000	0.00000000000000	0.00000000000000	20.27484700000000	0.00000000000000	0.00000000000000	0.00000000000000	0.00000000000000	
11.82495800000000	51.22088300000000	789.28932099999997	45.60678000000000	0.30784900000000	0.00000000000000	0.06837700000000	0.00000000000000	0.00000000000000	0.00000000000000	0.00000000000000	0.00000000000000	0.00000000000000	0.00000000000000	20.33521600000000	0.00000000000000	0.00000000000000	0.00000000000000	0.00000000000000	
11.82662100000000	50.56312400000000	791.07120299999997	45.77853200000000	0.30708400000000	0.00000000000000	0.06844600000000	0.00000000000000	0.00000000000000	0.00000000000000	0.00000000000000	0.00000000000000	0.00000000000000	0.00000000000000	20.39565900000000	0.00000000000000	0.00000000000000	0.00000000000000	0.00000000000000	
11.82828900000000	49.90813200000000	792.69831699999997	45.94959200000000	0.30631400000000	0.00000000000000	0.06851800000000	0.00000000000000	0.00000000000000	0.00000000000000	0.00000000000000	0.00000000000000	0.00000000000000	0.00000000000000	20.45585300000000	0.00000000000000	0.00000000000000	0.00000000000000	0.00000000000000	
11.82995300000000	49.25627200000000	794.17156899999998	46.11944800000000	0.30553700000000	0.00000000000000	0.06859200000000	0.00000000000000	0.00000000000000	0.00000000000000	0.00000000000000	0.00000000000000	0.00000000000000	0.00000000000000	20.51545900000000	0.00000000000000	0.00000000000000	0.00000000000000	0.00000000000000	
11.83162600000000	48.60787900000000	795.49210200000005	46.28756200000000	0.30475200000000	0.00000000000000	0.06867000000000	0.00000000000000	0.00000000000000	0.00000000000000	0.00000000000000	0.00000000000000	0.00000000000000	0.00000000000000	20.57412400000000	0.00000000000000	0.00000000000000	0.00000000000000	0.00000000000000	
11.83329200000000	47.96325500000000	796.66129300000000	46.45337500000000	0.30395700000000	0.00000000000000	0.06875000000000	0.00000000000000	0.00000000000000	0.00000000000000	0.00000000000000	0.00000000000000	0.00000000000000	0.00000000000000	20.63148200000000	0.00000000000000	0.00000000000000	0.00000000000000	0.00000000000000	
11.83495500000000	47.32268000000000	797.68074999999999	46.61630800000000	0.30315200000000	0.00000000000000	0.06883300000000	0.00000000000000	0.00000000000000	0.00000000000000	0.00000000000000	0.00000000000000	0.00000000000000	0.00000000000000	20.68716300000000	0.00000000000000	0.00000000000000	0.00000000000000	0.00000000000000	
11.83662100000000	46.68640300000000	798.55231500000002	46.77577200000000	0.30233600000000	0.00000000000000	0.06891900000000	0.00000000000000	0.00000000000000	0.00000000000000	0.00000000000000	0.00000000000000	0.00000000000000	0.00000000000000	20.74079000000000	0.00000000000000	0.00000000000000	0.00000000000000	0.00000000000000	
11.83829100000000	46.05465300000000	799.27805699999999	46.93117200000000	0.30150600000000	0.00000000000000	0.06900700000000	0.00000000000000	0.00000000000000	0.00000000000000	0.00000000000000	0.00000000000000	0.00000000000000	0.00000000000000	20.79198500000000	0.00000000000000	0.00000000000000	0.00000000000000	0.00000000000000	
11.83995900000000	45.42763600000000	799.86026900000002	47.08191000000000	0.30066300000000	0.00000000000000	0.06909900000000	0.00000000000000	0.00000000000000	0.00000000000000	0.00000000000000	0.00000000000000	0.00000000000000	0.00000000000000	20.84037200000000	0.00000000000000	0.00000000000000	0.00000000000000	0.00000000000000	
11.84161900000000	44.80553800000000	800.30146600000000	47.22739300000000	0.29980400000000	0.00000000000000	0.06919300000000	0.00000000000000	0.00000000000000	0.00000000000000	0.00000000000000	0.00000000000000	0.00000000000000	0.00000000000000	20.88558200000000	0.00000000000000	0.00000000000000	0.00000000000000	0.00000000000000	
11.84329200000000	44.18853000000000	800.60437800000000	47.36703500000000	0.29893000000000	0.00000000000000	0.06929000000000	0.00000000000000	0.00000000000000	0.00000000000000	0.00000000000000	0.00000000000000	0.00000000000000	0.00000000000000	20.92725000000000	0.00000000000000	0.00000000000000	0.00000000000000	0.00000000000000	
11.84495600000000	43.57676300000000	800.77194299999996	47.50026300000000	0.29804000000000	0.00000000000000	0.06939000000000	0.00000000000000	0.00000000000000	0.00000000000000	0.00000000000000	0.00000000000000	0.00000000000000	0.00000000000000	20.96502600000000	0.00000000000000	0.00000000000000	0.00000000000000	0.00000000000000	
11.84662100000000	42.97037600000000	800.80730300000005	47.62652100000000	0.29713200000000	0.00000000000000	0.06949200000000	0.00000000000000	0.00000000000000	0.00000000000000	0.00000000000000	0.00000000000000	0.00000000000000	0.00000000000000	20.99857000000000	0.00000000000000	0.00000000000000	0.00000000000000	0.00000000000000	
11.84829600000000	42.36949700000000	800.71379500000000	47.74527600000000	0.29620600000000	0.00000000000000	0.06959700000000	0.00000000000000	0.00000000000000	0.00000000000000	0.00000000000000	0.00000000000000	0.00000000000000	0.00000000000000	21.02756200000000	0.00000000000000	0.00000000000000	0.00000000000000	0.00000000000000	
11.84995900000000	41.77424000000000	800.49494100000004	47.85602000000000	0.29526300000000	0.00000000000000	0.06970400000000	0.00000000000000	0.00000000000000	0.00000000000000	0.00000000000000	0.00000000000000	0.00000000000000	0.00000000000000	21.05169600000000	0.00000000000000	0.00000000000000	0.00000000000000	0.00000000000000	
11.85162400000000	41.18471200000000	800.15444300000001	47.95827300000000	0.29430000000000	0.00000000000000	0.06981300000000	0.00000000000000	0.00000000000000	0.00000000000000	0.00000000000000	0.00000000000000	0.00000000000000	0.00000000000000	21.07069100000000	0.00000000000000	0.00000000000000	0.00000000000000	0.00000000000000	
11.85328700000000	40.60101000000000	799.69617200000005	48.05158800000000	0.29331900000000	0.00000000000000	0.06992500000000	0.00000000000000	0.00000000000000	0.00000000000000	0.00000000000000	0.00000000000000	0.00000000000000	0.00000000000000	21.08428800000000	0.00000000000000	0.00000000000000	0.00000000000000	0.00000000000000	
11.85495200000000	40.02322600000000	799.12415599999997	48.13555400000000	0.29231900000000	0.00000000000000	0.07003900000000	0.00000000000000	0.00000000000000	0.00000000000000	0.00000000000000	0.00000000000000	0.00000000000000	0.00000000000000	21.09225100000000	0.00000000000000	0.00000000000000	0.00000000000000	0.00000000000000	
11.85663700000000	39.45144400000000	798.44257200000004	48.20979900000000	0.29129900000000	0.00000000000000	0.07015500000000	0.00000000000000	0.00000000000000	0.00000000000000	0.00000000000000	0.00000000000000	0.00000000000000	0.00000000000000	21.09437300000000	0.00000000000000	0.00000000000000	0.00000000000000	0.00000000000000	
11.85829300000000	38.88574600000000	797.65573500000005	48.27399200000000	0.29026100000000	0.00000000000000	0.07027300000000	0.00000000000000	0.00000000000000	0.00000000000000	0.00000000000000	0.00000000000000	0.00000000000000	0.00000000000000	21.09047200000000	0.00000000000000	0.00000000000000	0.00000000000000	0.00000000000000	
11.85995900000000	38.32620900000000	796.76808400000004	48.32784300000000	0.28920400000000	0.00000000000000	0.07039300000000	0.00000000000000	0.00000000000000	0.00000000000000	0.00000000000000	0.00000000000000	0.00000000000000	0.00000000000000	21.08039900000000	0.00000000000000	0.00000000000000	0.00000000000000	0.00000000000000	
11.86161900000000	37.77290700000000	795.78417300000001	48.37110800000000	0.28812800000000	0.00000000000000	0.07051400000000	0.00000000000000	0.00000000000000	0.00000000000000	0.00000000000000	0.00000000000000	0.00000000000000	0.00000000000000	21.06403000000000	0.00000000000000	0.00000000000000	0.00000000000000	0.00000000000000	
11.86329100000000	37.22591200000000	794.70865800000001	48.40359000000000	0.28703500000000	0.00000000000000	0.07063700000000	0.00000000000000	0.00000000000000	0.00000000000000	0.00000000000000	0.00000000000000	0.00000000000000	0.00000000000000	21.04127600000000	0.00000000000000	0.00000000000000	0.00000000000000	0.00000000000000	
11.86496100000000	36.68529600000000	793.54628300000002	48.42513500000000	0.28592300000000	0.00000000000000	0.07076200000000	0.00000000000000	0.00000000000000	0.00000000000000	0.00000000000000	0.00000000000000	0.00000000000000	0.00000000000000	21.01207600000000	0.00000000000000	0.00000000000000	0.00000000000000	0.00000000000000	
